<svg version="1.1" id="svg8" xmlns="http://www.w3.org/2000/svg" x="0" y="0" width="189.07" height="44.89"  style="fill: #8a0522; enable-background:new 0 0 189.07 44.89" xml:space="preserve"><path class="st0" d="M.51.55h3.03v30.98s0 2.23 2 2.23h16.28v3.36H4.11S.5 37.11.5 33.11C.5 29.17.51.55.51.55m4.18 0h3.02v26.57s-.21 2.06 1.76 2.06c9.72-.02 12.33 0 12.33 0v3.32H6.46s-1.79-.14-1.77-1.97c.01-1.3 0-29.98 0-29.98m4.16 0h3.04l.01 22.47s-.18 1.53 1.27 1.53h8.66l-.03 3.35H10.15s-1.29-.26-1.29-1.81L8.85.55zm4.18 0h3.04v18.14s-.19 1.29 1.14 1.29h4.61v3.32h-7.03c-1.26 0-1.77-.38-1.77-1.66V.55z"/><path d="M38.48 37.08h-3.03l.01-30.98s0-2.23-1.99-2.23c-1.88 0-16.29-.01-16.29-.01L17.19.5 34.9.51s3.61.01 3.61 4.01c-.01 3.95-.03 32.56-.03 32.56m-4.18 0h-3.03V10.51s.21-2.07-1.76-2.06H17.18V5.14h15.34s1.79.14 1.77 1.97c0 1.3 0 29.98.01 29.97m-4.16 0H27.1V14.61s.18-1.53-1.27-1.53h-8.65V9.74h11.66s1.3.26 1.29 1.81v25.54m-4.17-.01h-3.04V18.94s.19-1.29-1.14-1.29h-4.61v-3.31h7.02c1.26 0 1.77.38 1.77 1.66v21.08" style="fill:#f57f1e"/><path class="st0" d="M69.26 8.09h3.1v3.49h-3.1V8.09zm0 7.61h3.1v21.42h-3.1V15.7zm109.9-7.64h3.1v29.06h-3.1V8.06zM89.67 15.7l-6.25 17.24-6.25-17.24h-3.54l7.77 21.42h4.05l7.77-21.42h-3.55zM60.5 33.72c-1.05 0-1.84-.93-1.84-2.07V8.1h-3.1v24.1c0 2.7 1.96 4.9 4.43 4.9h8.14v-3.38H60.5zm58.85-14.57c-1.05 0-1.84.93-1.84 2.07v15.99h-3.1V20.66c0-2.7 1.95-4.9 4.43-4.9h3.26v3.38l-2.75.01zM95.52 23.5c1.04-3.39 3.89-5.56 7.01-5.56 3.12 0 5.96 2.17 7 5.56H95.52zm17.25 3.15v-.66c0-6.17-4.6-11.2-10.24-11.2-5.65 0-10.24 5.03-10.24 11.2 0 6.18 4.59 11.2 10.24 11.2 4.77 0 8.83-3.5 9.95-8.55h-3c-1.04 3.23-3.81 5.4-6.95 5.4-3.81 0-6.97-3.14-7.35-7.4h17.59zm54.51 7.28c-4 0-7.26-3.56-7.26-7.93 0-4.38 3.26-7.94 7.26-7.94s7.26 3.56 7.26 7.94-3.26 7.93-7.26 7.93m-17.63 0c-4.01 0-7.26-3.56-7.26-7.93 0-4.38 3.25-7.94 7.26-7.94 4 0 7.26 3.56 7.26 7.94s-3.26 7.93-7.26 7.93m-17.63 0c-4 0-7.26-3.56-7.26-7.93 0-4.38 3.26-7.94 7.26-7.94 4.01 0 7.26 3.56 7.26 7.94s-3.25 7.93-7.26 7.93m35.26-19.26c-3.72 0-6.99 2.15-8.81 5.38-1.82-3.23-5.09-5.38-8.81-5.38-3.73 0-6.99 2.15-8.81 5.38-1.83-3.23-5.09-5.38-8.82-5.38-5.72 0-10.35 5.07-10.35 11.32v18.39h3.13V34.1c1.87 1.99 4.42 3.21 7.22 3.21 3.72 0 6.99-2.15 8.82-5.38 1.82 3.23 5.08 5.38 8.81 5.38 3.72 0 6.99-2.15 8.81-5.38 1.82 3.23 5.09 5.38 8.81 5.38 5.72 0 10.35-5.07 10.35-11.32S173 14.67 167.28 14.67m18.78-4.37c.33 0 .55-.14.55-.44 0-.27-.19-.43-.47-.43h-.69v.87h.61zm-1.05-1.27h1.18c.66 0 .88.45.88.77 0 .47-.31.81-.76.84v.02c.23.09.4.34.62.73l.32.56h-.53l-.23-.45c-.33-.66-.46-.78-.79-.78h-.26v1.23h-.43V9.03zm1.08-.85c-1.14 0-2.06 1.01-2.06 2.26s.92 2.27 2.06 2.27 2.07-1.02 2.07-2.27-.93-2.26-2.07-2.26m0 4.97c-1.37 0-2.47-1.21-2.47-2.71s1.1-2.7 2.47-2.7 2.48 1.2 2.48 2.7-1.11 2.71-2.48 2.71"/></svg>