<svg xmlns="http://www.w3.org/2000/svg" viewBox="0 0 1000 1000" style="fill: #8a0522;" xml:space="preserve"><path d="M441.17 55.25C371.43 70 315.49 126.71 300.93 197.2c-3.06 14.56-3.64 23.18-2.87 43.1.96 27.78 4.02 41.38 14.75 66.29l7.09 16.48-20.31 8.05c-11.11 4.41-30.65 13.41-43.3 20.12l-22.98 12.06-19.16-9.39c-21.07-10.15-44.45-16.86-58.62-16.86-7.66 0-10.54.96-15.52 5.56-6.13 5.36-6.32 6.13-5.94 18.77.38 17.62 6.71 35.63 20.69 59l3.45 5.94-13.41 17.63c-19.73 25.86-35.06 56.52-43.68 86.98l-3.06 11.11H79.47c-22.03 0-29.5 1.92-41.76 10.15-12.07 8.05-21.07 20.88-24.9 35.63-4.6 18.01-3.26 82.57 1.92 92.15 5.94 10.73 23.75 28.16 44.25 43.1 19.16 13.98 137.55 88.51 149.62 94.45l6.51 3.07v56.13c0 59.77.77 64.75 9.39 69.54 2.3 1.15 22.41 1.92 51.34 1.92 39.46 0 48.28-.57 51.73-2.87 2.3-1.72 12.07-18.01 21.65-36.59 13.79-26.25 18.2-33.33 20.69-32.57 1.92.57 11.11 2.3 20.5 3.83 78.35 13.22 166.67 7.47 238.32-15.33 11.11-3.45 20.31-6.13 20.69-5.94.19.38 4.21 18.58 8.81 40.61 7.66 35.83 9 40.42 13.6 44.45 5.17 4.41 5.75 4.41 53.07 4.41 29.31 0 49.43-.77 51.72-1.92 9-4.98 9.39-7.85 9.39-93.1v-79.89l12.26-13.03c32.18-33.91 54.98-77.39 64.56-122.61 7.86-36.78 4.6-88.31-7.66-120.5l-3.45-9.2 12.26-12.26c6.71-6.51 16.09-17.82 20.69-24.71l8.43-12.64 11.3-.96c20.88-1.92 50.58-17.62 72.61-38.51 12.45-11.69 15.33-19.35 11.3-29.12-3.45-7.85-13.98-13.6-21.84-11.49-2.68.57-9.58 5.56-15.52 10.73-13.79 12.26-28.54 22.22-38.7 25.67l-7.86 2.87 1.15-6.32c.76-3.26 1.72-15.33 2.49-26.63 1.92-32.76-3.64-53.07-18.77-69.54-13.22-14.37-20.31-17.24-42.91-17.24-17.63 0-19.92.38-29.5 5.75-20.31 11.3-29.88 30.46-29.88 60.35 0 16.67.57 19.16 5.75 28.54 11.3 20.31 27.2 36.59 55.17 56.13 3.26 2.3 2.68 3.26-5.36 12.07-8.24 9-8.81 9.39-11.11 5.94-1.15-2.11-8.43-12.07-16.09-22.22-34.1-45.98-90.8-87.74-151.73-112.07-12.26-4.98-22.41-9.2-22.6-9.39-.19-.19 2.87-8.05 6.9-17.63 11.69-27.4 14.56-41.76 14.37-72.61 0-21.46-.96-30.08-4.41-43.1-18.77-70.5-75.67-123.37-146.55-135.83-17.27-3.06-51.56-2.29-70.14 1.54zm75.86 40.42c24.71 6.32 43.29 17.43 63.98 38.31 14.94 14.75 19.92 21.26 26.44 34.48 19.16 38.51 21.07 82.95 5.17 120.69-32.76 77.59-122.22 110.35-198.28 72.42-22.41-11.11-49.23-37.55-60.73-59.96-19.54-38.12-22.41-77.59-8.24-116.29 6.51-18.01 22.99-43.49 35.25-54.79 20.69-19.16 52.11-34.48 78.16-38.51 15.91-2.48 40.43-.95 58.25 3.65zm341.96 244.45c7.66 6.9 9.96 18.39 9 43.87-.58 13.22-1.72 24.9-2.87 26.05-2.68 2.68-18.58-10.54-29.5-24.9-9.58-12.64-9.58-12.64-9-25.48.57-10.34 1.53-13.79 5.17-17.62 6.89-7.48 20.11-8.24 27.2-1.92zm-502.12 28.35c7.09 6.71 15.71 13.79 18.97 15.71 3.26 1.92 5.94 4.02 5.94 4.6 0 .57-8.81 3.45-19.73 6.32-26.82 7.28-51.15 17.43-56.32 23.37-6.51 7.47-5.94 18.77 1.15 26.05 7.66 7.47 13.99 7.28 37.36-1.92 42.34-16.48 83.53-23.75 136.21-23.75 52.3 0 96.94 8.05 137.55 24.33 9.2 3.83 19.92 6.9 23.56 6.9 14.94 0 23.56-19.16 14.18-31.23-4.6-5.75-34.1-17.82-59.77-24.52-9.39-2.49-16.86-4.79-16.86-5.56 0-.57 4.79-4.21 10.35-8.24 5.55-4.02 13.99-11.11 18.39-15.71l8.05-8.24 8.05 2.49c78.33 24.34 150.75 81.63 182.55 144.46 30.27 59.77 27.78 131.42-6.32 188.51-9.39 15.52-28.74 40.23-40.04 51.15-15.13 14.56-14.37 10.15-14.37 92.91v73.95l-22.41-.57-22.61-.57-9-43.87c-7.09-34.87-9.77-44.64-13.22-48.28-6.9-7.28-14.37-7.47-30.46-1.15-59.96 23.76-111.11 32.18-183.91 30.46-36.97-.96-49.81-1.92-71.84-6.13-42.72-7.85-41.57-7.85-47.89-2.3-3.45 2.87-12.64 18.2-22.99 38.51l-17.24 33.72h-48.66l-.58-54.41c-.57-62.45.38-58.43-19.73-68.58-14.76-7.48-128.17-78.17-151.73-94.65-9.96-6.9-21.46-15.71-25.48-19.73l-7.66-7.28v-33.91c0-48.08 2.11-50.96 38.31-50.96 31.42 0 41.38-7.86 50.96-39.85 9.77-33.14 27.39-63.99 51.53-90.04 16.48-17.82 16.86-24.52 3.26-42.91-8.62-11.49-14.56-22.41-13.03-23.95 1.15-1.34 23.95 9.2 36.4 17.05 13.79 8.43 18.96 7.85 38.12-3.83 18.97-11.69 49.62-26.63 71.27-34.67 8.43-3.07 15.71-5.75 16.09-5.75.39-.19 6.52 5.37 13.6 12.07z"/><path d="M472.58 133.79c-6.13 2.68-12.26 11.49-12.26 17.63 0 3.26-.96 5.56-2.49 5.56-4.02 0-17.24 7.66-23.95 13.98-9.2 8.81-13.79 19.73-13.79 32.95 0 22.03 12.64 36.78 38.89 45.21 14.18 4.6 16.48 3.83 16.67-4.98 0-2.11.96-5.17 1.92-6.71 1.34-2.11 1.92-.19 1.92 6.9v9.77l8.62 2.49c14.94 4.21 16.28 11.11 3.45 16.67-13.41 5.56-33.14-.96-33.14-10.92 0-5.75-7.47-13.22-14.56-14.56-7.86-1.34-16.86 1.92-20.88 7.66-10.73 14.94 7.47 47.13 30.84 54.79 4.41 1.53 6.51 3.45 6.51 5.94 0 5.56 5.17 14.75 9.39 17.05 4.98 2.49 14.18 2.49 20.12-.19 4.79-2.3 10.73-12.07 10.73-17.62 0-1.53 3.45-4.21 7.85-5.94 12.07-4.79 25.86-18.97 29.69-30.27 4.02-12.26 2.68-25.86-3.83-36.78-8.05-13.79-19.54-20.31-47.13-26.82-21.07-4.98-29.31-9-27.4-13.6 3.06-8.05 26.05-11.69 34.87-5.56 2.3 1.72 5.94 6.9 8.05 11.69 6.51 15.13 24.33 17.62 34.29 4.98 11.3-14.37-4.02-43.68-27.97-53.64-6.71-2.68-8.24-4.41-9.96-11.49-3.27-11.7-16.1-18.59-26.45-14.19zM201.89 502.77c-30.65 9.77-36.78 52.3-10.15 70.69 11.11 7.86 28.54 9.2 40.04 3.26 10.54-5.17 18.97-15.9 21.65-27.2 7.27-29.9-21.85-56.33-51.54-46.75z"/></svg>