<svg xmlns="http://www.w3.org/2000/svg" version="1.0" preserveAspectRatio="xMidYMid meet" viewBox="143.01 112.46 172.99 201.54">

<g transform="translate(0.000000,443.000000) scale(0.100000,-0.100000)" fill="#000000" stroke="none">
<path d="M1746 3303 c-3 -3 -6 -14 -6 -24 0 -28 -57 -87 -88 -91 -22 -2 -26 -8 -24 -25 4 -25 -16 -31 -36 -11 -9 9 -15 9 -20 2 -4 -5 -24 -23 -46 -39 -37 -28 -38 -30 -32 -78 l5 -49 -34 6 c-45 9 -47 -10 -3 -52 l31 -31 -26 -10 c-33 -13 -34 -31 -4 -59 27 -26 51 -28 91 -7 16 8 47 18 70 21 22 4 47 11 54 17 7 5 14 8 16 6 1 -2 35 -70 75 -151 100 -204 277 -464 385 -567 20 -19 36 -38 36 -43 0 -4 -68 -62 -151 -129 -112 -89 -150 -115 -145 -98 4 13 16 56 26 94 10 39 26 90 34 114 19 51 19 51 7 51 -18 0 -73 -58 -67 -69 4 -6 2 -19 -3 -30 -6 -11 -20 -65 -31 -122 -22 -113 -30 -133 -30 -71 0 56 19 139 41 185 11 20 16 37 11 37 -25 0 -80 -207 -68 -253 3 -13 -12 -41 -48 -86 -98 -124 -177 -244 -176 -268 0 -4 6 1 12 12 57 102 183 267 260 341 65 62 325 269 338 269 5 0 55 -45 112 -100 57 -55 141 -135 188 -177 198 -178 311 -300 354 -386 10 -19 20 -32 22 -29 17 16 -114 186 -222 290 -70 67 -71 69 -83 138 -6 39 -23 93 -37 120 -13 27 -22 55 -18 60 7 11 -12 29 -31 29 -12 0 -3 -153 11 -185 7 -18 5 -18 -22 3 -16 13 -82 75 -147 139 l-118 116 23 20 c13 11 60 56 105 100 69 66 86 77 105 71 12 -3 61 -6 109 -6 72 1 96 5 136 26 48 24 73 57 73 96 0 12 -7 20 -17 21 -47 3 -94 -4 -156 -23 -37 -11 -70 -18 -72 -16 -3 2 35 48 85 101 49 54 119 140 156 193 58 81 69 92 75 75 18 -47 65 -59 174 -46 71 9 88 20 126 77 l29 43 -21 16 c-20 15 -20 17 -5 46 17 35 13 43 -22 43 -19 0 -23 4 -17 18 20 47 18 52 -13 52 -21 0 -38 9 -55 30 -31 36 -39 37 -80 7 -63 -45 -117 -51 -117 -12 0 18 -67 78 -79 71 -6 -4 -11 -28 -11 -53 0 -39 -2 -44 -17 -38 -10 3 -30 9 -45 12 -24 5 -28 2 -28 -19 0 -13 11 -44 24 -68 14 -25 33 -63 44 -86 20 -41 37 -54 73 -54 31 0 28 -5 -57 -126 -81 -114 -226 -270 -289 -310 -26 -16 -48 -39 -54 -56 -11 -32 -166 -183 -187 -183 -7 0 -40 31 -74 68 -44 50 -62 78 -66 108 -4 22 -10 42 -15 45 -5 3 -6 -3 -2 -12 4 -12 3 -15 -5 -10 -8 5 -12 40 -12 100 0 58 -6 110 -15 137 -9 24 -13 49 -10 56 2 8 -5 29 -18 48 -22 35 -44 48 -33 19 11 -28 58 -326 52 -331 -16 -17 -296 472 -296 517 0 6 10 10 23 10 21 0 84 54 135 115 23 27 30 81 12 87 -7 2 -7 13 0 33 14 43 -1 90 -28 89 -15 0 -22 5 -22 17 0 28 -69 87 -84 72z m60 -140 c-26 -114 -91 -242 -80 -155 3 19 0 15 -10 -13 -9 -27 -15 -34 -16 -20 -2 14 -4 12 -10 -10 l-7 -30 -11 25 c-8 18 -11 20 -11 8 -2 -34 -20 -20 -69 49 -28 40 -28 53 1 53 36 0 58 30 51 68 -7 33 -5 35 48 46 22 5 27 2 31 -16 2 -13 3 -6 2 15 -4 45 12 50 18 5 2 -18 4 -8 4 23 0 78 9 88 45 51 l30 -30 -16 -69z m64 1 c0 -24 -8 -46 -25 -66 -14 -16 -25 -36 -25 -44 0 -19 -41 -84 -69 -108 -25 -23 -41 -14 -19 11 26 29 67 118 78 169 12 53 25 74 46 74 9 0 14 -12 14 -36z m-243 -58 c-2 -6 -20 -15 -40 -19 -33 -8 -36 -12 -31 -34 7 -25 -7 -43 -32 -43 -15 0 -27 47 -16 66 4 8 23 25 42 38 28 19 39 21 58 13 12 -6 21 -15 19 -21z m1161 -26 c12 -11 29 -34 37 -50 9 -17 22 -30 29 -30 23 0 90 31 113 53 29 26 40 15 22 -20 -22 -45 -22 -50 1 -24 11 13 23 21 27 17 4 -3 -11 -24 -32 -46 -21 -22 -36 -42 -34 -45 3 -2 23 13 44 35 36 37 79 52 97 34 3 -3 -12 -32 -34 -65 -40 -60 -68 -79 -137 -92 -34 -7 -34 -7 -16 13 27 30 13 34 -15 5 -28 -30 -45 -33 -30 -6 14 27 12 41 -2 16 -10 -18 -12 -16 -24 20 l-12 40 -1 -40 -1 -40 -32 32 c-30 31 -32 37 -36 123 -3 52 -1 90 5 90 5 0 19 -9 31 -20z m-908 -29 c0 -19 -125 -151 -143 -151 -6 0 5 17 25 38 21 20 46 58 58 85 15 33 27 47 40 47 13 0 20 -7 20 -19z m853 -48 c4 -2 7 -19 7 -36 0 -29 13 -55 56 -114 9 -13 12 -23 6 -23 -6 0 -23 18 -39 40 -15 22 -32 40 -38 40 -16 1 -45 46 -52 80 -6 30 -5 31 23 24 16 -4 32 -9 37 -11z m-1139 -15 c10 -14 12 -24 5 -28 -5 -4 4 -14 22 -23 l32 -15 -45 -7 c-26 -4 -59 -4 -75 -1 -26 6 -83 48 -83 61 0 10 56 5 69 -7 11 -11 13 -10 9 2 -5 16 18 39 39 40 6 0 19 -10 27 -22z m1536 -56 c0 -17 -63 -92 -78 -93 -41 -4 -49 -6 -76 -18 -17 -6 -48 -10 -70 -9 -45 4 -41 6 54 35 53 15 69 25 88 54 16 25 31 35 52 37 17 1 30 -1 30 -6z m-1514 -37 c-11 -8 -37 -15 -57 -15 -21 0 -41 -4 -44 -10 -3 -5 3 -10 15 -10 12 0 18 -4 15 -10 -14 -23 -85 -5 -85 21 0 13 60 31 83 25 13 -3 36 -1 52 3 41 13 43 12 21 -4z m50 -10 c-27 -21 -53 -20 -36 0 7 8 22 15 34 15 21 -1 21 -1 2 -15z m1098 -40 c9 -14 14 -25 12 -25 -8 0 -36 31 -36 41 0 15 7 10 24 -16z m376 -4 c0 -5 -15 -29 -33 -53 -31 -40 -37 -44 -97 -52 -88 -11 -115 -10 -145 10 -34 22 -31 34 8 28 27 -4 29 -3 10 5 -35 16 -27 23 16 16 27 -4 49 -2 70 9 16 9 43 16 59 16 15 0 37 7 48 15 21 16 64 20 64 6z m-1124 -361 c4 -91 -11 -52 -19 50 -4 50 -3 60 5 45 6 -10 13 -53 14 -95z m674 -80 c-78 -39 -254 -70 -222 -38 18 18 193 65 247 66 27 1 24 -2 -25 -28z m60 4 c0 -19 -26 -47 -62 -65 -48 -25 -193 -38 -223 -21 -16 8 -15 10 11 15 16 3 55 9 86 12 33 4 80 18 110 34 53 28 78 36 78 25z m-816 -326 c-8 -23 -23 -78 -34 -122 -27 -106 -41 -118 -24 -19 14 81 27 122 52 161 21 33 23 27 6 -20z m605 -171 c12 -33 21 -72 21 -86 l0 -24 -24 22 c-27 25 -46 82 -46 136 0 31 2 36 14 26 8 -7 24 -40 35 -74z"/>
<path d="M2123 3196 c15 -12 17 -34 17 -210 0 -166 -2 -198 -15 -202 -34 -14 -11 -24 53 -24 58 1 65 2 50 14 -15 11 -18 29 -18 95 l0 81 40 0 c39 0 40 -1 101 -95 l61 -95 44 0 c43 0 58 12 30 23 -8 3 -40 43 -71 89 -51 76 -54 84 -38 95 95 68 97 171 4 220 -39 20 -58 23 -160 23 -99 -1 -113 -3 -98 -14z m208 -29 c60 -40 64 -128 7 -170 -15 -11 -49 -22 -77 -25 l-51 -5 0 112 0 111 44 0 c28 0 55 -8 77 -23z"/>
<path d="M2010 2628 c0 -3 8 -23 17 -44 10 -22 20 -78 24 -129 l5 -90 2 82 c1 57 -3 96 -15 125 -15 39 -33 70 -33 56z"/>
<path d="M2520 2006 c0 -4 7 -17 15 -30 9 -13 24 -48 35 -77 11 -30 19 -46 20 -37 0 26 -39 125 -55 138 -8 7 -15 9 -15 6z"/>
<path d="M2013 1722 c16 -17 16 -27 2 -123 -37 -248 -44 -281 -62 -295 -16 -12 -12 -13 32 -13 46 0 49 1 30 14 -19 15 -19 17 4 168 22 146 27 165 34 156 2 -2 31 -78 65 -169 37 -101 66 -166 75 -168 10 -2 20 14 32 50 36 114 98 288 101 285 2 -2 18 -72 35 -156 29 -147 30 -153 12 -167 -16 -12 -10 -13 51 -14 68 0 69 0 51 20 -12 13 -30 82 -55 206 -30 155 -34 188 -23 199 20 21 16 25 -25 25 l-37 0 -59 -177 c-67 -200 -57 -195 -110 -48 -13 39 -37 105 -52 148 l-29 77 -44 0 c-42 0 -43 -1 -28 -18z"/>
</g>
</svg>